Coordinates
version=1
nRows=8
nColumns=40
inDegrees=yes

Units are S.I. units (second, meters, Newtons, ...)
Angles are in degrees.

endheader
time	pelvis_tilt	pelvis_list	pelvis_rotation	pelvis_tx	pelvis_ty	pelvis_tz	hip_flexion_r	hip_adduction_r	hip_rotation_r	knee_angle_r	knee_angle_r_beta	ankle_angle_r	subtalar_angle_r	mtp_angle_r	hip_flexion_l	hip_adduction_l	hip_rotation_l	knee_angle_l	knee_angle_l_beta	ankle_angle_l	subtalar_angle_l	mtp_angle_l	lumbar_extension	lumbar_bending	lumbar_rotation	arm_flex_r	arm_add_r	arm_rot_r	elbow_flex_r	pro_sup_r	wrist_flex_r	wrist_dev_r	arm_flex_l	arm_add_l	arm_rot_l	elbow_flex_l	pro_sup_l	wrist_flex_l	wrist_dev_l
     32.98500000	     -7.53895548	     -3.94274448	     -6.58044702	      1.03836017	      0.92734960	      0.50483182	     19.52467082	     -0.33562059	     -5.36711496	     17.64901022	     17.64901022	      7.60423804	      3.89925806	     -0.56122049	      4.55934842	     -8.79893978	    -15.13162512	     17.70109638	     17.70109638	     16.88294968	     -5.62556004	     -1.18597022	     -7.23863970	      4.06120700	     -1.84441169	     -6.46741305	    -19.69320512	     -7.98871376	     70.17139626	     44.75013709	      0.00000000	      0.00000000	     21.22201676	    -17.96021465	    -12.09170640	     79.63769112	     47.97720594	      0.00000000	      0.00000000
     33.00657143	     -7.57803330	     -4.12958705	     -6.16827560	      1.04032088	      0.92788271	      0.51041246	     19.09128002	      0.14396052	     -5.64212317	     17.75406395	     17.75406395	      7.95441006	      3.51182027	     -0.49222444	      4.28797730	     -9.57902164	    -15.62159062	     17.90161124	     17.90161124	     16.82417199	     -4.24618487	     -1.49462999	     -7.11571304	      4.09363448	     -1.41755025	     -5.69437175	    -21.09540646	     -7.50245947	     71.63183034	     44.71708527	      0.00000000	      0.00000000	     20.09181100	    -16.74976851	    -11.14824684	     74.77770119	     47.82662828	      0.00000000	      0.00000000
     33.02814286	     -7.59803159	     -4.26006652	     -5.72769164	      1.04221399	      0.92842225	      0.51589539	     18.61168102	      0.55199368	     -5.99746455	     17.79270086	     17.79270086	      8.29873527	      3.23595637	     -0.46290860	      4.05238638	    -10.24851026	    -15.76959136	     18.12492162	     18.12492162	     16.68610756	     -3.31464702	     -1.58244684	     -7.01840749	      4.04192851	     -1.30643659	     -4.53121969	    -22.17347579	     -7.51652952	     72.96768222	     44.70956067	      0.00000000	      0.00000000	     18.42713235	    -15.87980949	    -10.31135145	     70.39540448	     47.68836556	      0.00000000	      0.00000000
     33.04971429	     -7.60670423	     -4.36099103	     -5.24977108	      1.04400417	      0.92892760	      0.52128812	     18.09732484	      0.92176645	     -6.39192970	     17.75895313	     17.75895313	      8.59482506	      3.00920515	     -0.47738065	      3.93223115	    -10.88943089	    -15.70886458	     18.51064032	     18.51064032	     16.48243041	     -2.68563416	     -1.72442407	     -6.97414178	      3.95156220	     -1.60280157	     -2.94191730	    -22.95648572	     -7.70942392	     74.13355415	     44.69780900	      0.00000000	      0.00000000	     16.10296056	    -15.26340707	     -9.77817296	     66.82969732	     47.57774416	      0.00000000	      0.00000000
     33.07128571	     -7.60254382	     -4.47051404	     -4.79450725	      1.04567186	      0.92934514	      0.52662276	     17.60687755	      1.31494435	     -6.71088215	     17.77207771	     17.77207771	      8.94965192	      2.70864909	     -0.44408920	      3.93473177	    -11.62000924	    -15.80449184	     19.14763029	     19.14763029	     16.26230082	     -1.84284306	     -2.10520272	     -6.85511035	      3.88144168	     -1.20554461	     -1.88589684	    -24.41712916	     -7.16902178	     75.08673961	     44.68824682	      0.00000000	      0.00000000	     14.88525758	    -14.03378134	     -9.14239111	     61.18195580	     47.43558561	      0.00000000	      0.00000000
     33.09285714	     -7.57749004	     -4.53847177	     -4.29339586	      1.04717758	      0.92970284	      0.53188425	     17.11649112	      1.65626620	     -7.05260441	     17.78906657	     17.78906657	      9.30875719	      2.42160737	     -0.42520360	      4.10312644	    -12.31240457	    -15.59098898	     20.03666218	     20.03666218	     15.87410460	     -1.41885332	     -2.73550322	     -6.81251349	      3.76236503	     -1.13219583	     -0.49039816	    -25.44872722	     -7.15298787	     76.07982895	     44.69417387	      0.00000000	      0.00000000	     13.11055808	    -13.15562619	     -8.59474246	     56.34390453	     47.30840425	      0.00000000	      0.00000000
     33.11442857	     -7.48762408	     -4.56046643	     -3.80460547	      1.04853282	      0.93005358	      0.53709838	     16.61117162	      1.94057557	     -7.40785073	     17.86515528	     17.86515528	      9.67377421	      2.18777807	     -0.50343086	      4.38752170	    -12.94739818	    -15.08782978	     21.21559765	     21.21559765	     15.46673116	     -1.43923483	     -3.09605807	     -6.94500953	      3.55723202	     -1.04791044	      1.00784503	    -26.35441405	     -7.70968928	     76.86884579	     44.69918923	      0.00000000	      0.00000000	     10.42590532	    -12.44380775	     -8.23978349	     54.00169224	     47.22445600	      0.00000000	      0.00000000
     33.13600000	     -7.46978269	     -4.57547927	     -3.19792941	      1.04956413	      0.93014067	      0.54221033	     16.24070534	      2.23825221	     -7.63413597	     18.00261854	     18.00261854	     10.09094387	      1.62342052	     -0.37346747	      5.13014520	    -13.72676764	    -14.61161864	     22.94261335	     22.94261335	     14.42641089	     -1.37137774	     -5.27979973	     -6.80526169	      3.40731946	     -1.18222010	      2.81789503	    -27.16893002	     -7.02863612	     77.58936878	     44.69268477	      0.00000000	      0.00000000	      9.39300443	    -11.67741197	     -7.59800075	     46.74957437	     47.06827161	      0.00000000	      0.00000000
